<svg xmlns="http://www.w3.org/2000/svg" viewBox="0 0 48 48" width="48" height="48">
  <defs>
    <linearGradient id="pvBlue" x1="0%" y1="0%" x2="100%" y2="100%">
      <stop offset="0%" stop-color="#0078D4"/>
      <stop offset="100%" stop-color="#003D75"/>
    </linearGradient>
  </defs>
  <!-- Microsoft Purview Governance Shield -->
  <path d="M24 3 L42 9.5 L42 24 C42 34.5 34.5 43.5 24 46 C13.5 43.5 6 34.5 6 24 L6 9.5 Z" fill="url(#pvBlue)"/>
  <path d="M24 7 L38 12 L38 24 C38 32 31.8 39.5 24 42 C16.2 39.5 10 32 10 24 L10 12 Z" fill="#005BA1"/>
  <!-- Central Governance Data Network Nodes -->
  <circle cx="24" cy="24" r="5" fill="#50E6FF"/>
  <circle cx="17" cy="18" r="3" fill="#FFFFFF"/>
  <circle cx="31" cy="18" r="3" fill="#FFFFFF"/>
  <circle cx="24" cy="32" r="3" fill="#FFFFFF"/>
  <line x1="24" y1="24" x2="17" y2="18" stroke="#FFFFFF" stroke-width="2"/>
  <line x1="24" y1="24" x2="31" y2="18" stroke="#FFFFFF" stroke-width="2"/>
  <line x1="24" y1="24" x2="24" y2="32" stroke="#FFFFFF" stroke-width="2"/>
</svg>
